<?xml version="1.0" encoding="utf-8"?>
<!-- Generator: Adobe Illustrator 21.0.2, SVG Export Plug-In . SVG Version: 6.00 Build 0)  -->
<svg version="1.1" id="Слой_1" xmlns="http://www.w3.org/2000/svg" xmlns:xlink="http://www.w3.org/1999/xlink" x="0px" y="0px"
	 viewBox="0 0 22.1 22.1" enable-background="new 0 0 22.1 22.1" xml:space="preserve">
<g>
	<g>
		<path fill="#FFFFFF" d="M14,7.2c0,0-1-1.8,0.5-4.1c0,0,0.1,0.2,0.6,0.4c0.5,0.2,0.8,0.4,1,1c0.2,0.5,0.6,0.9,1,0.9
			s0.8,0.5,0.9,0.9c0.1,0.4,0.4,0.7,0.6,0.7c0,0-1.9,1.6-4.1,0.9"/>
			c0.1-0.1,0.2,0,0.3,0.1c0.1,0.1,0,0.2-0.1,0.3c0,0-0.2,0.1-0.5,0.5c-0.3,0.4-0.5,0.9-0.6,1.5C14.3,7.4,14.2,7.5,14.1,7.5z"/>
		<path fill="#FFFFFF" d="M7.8,13.8c0,0-2-1.2-4.6,0.6c0,0,0.2,0.1,0.4,0.7c0.2,0.6,0.5,0.9,1.1,1.1c0.6,0.2,1,0.6,1,1.1
			c0,0.5,0.6,0.9,1,1c0.4,0.1,0.7,0.5,0.7,0.7c0,0,1.8-2.1,1-4.5"/>
		<g>
			<path fill="#FFFFFF" d="M7.9,9.8l2.3-2.3c1.1-1.1,3-1.1,4.1,0l0,0c1.1,1.1,1.1,3,0,4.1l-2.3,2.3c-1.1,1.1-3,1.1-4.1,0l0,0
				C6.8,12.8,6.8,10.9,7.9,9.8z"/>
		</g>
	</g>
</g>
</svg>
