<?xml version="1.0" encoding="utf-8"?>
<!-- Generator: Adobe Illustrator 21.0.2, SVG Export Plug-In . SVG Version: 6.00 Build 0)  -->
<svg version="1.1" id="Слой_1" xmlns="http://www.w3.org/2000/svg" xmlns:xlink="http://www.w3.org/1999/xlink" x="0px" y="0px"
	 viewBox="0 0 22.1 22.1" enable-background="new 0 0 22.1 22.1" xml:space="preserve">
<g>
	<path fill="#FFFFFF" d="M10.1,10.5c-0.1,0-0.2,0-0.2-0.1L7.7,5.6c0-0.1,0-0.2,0.1-0.3c0.1,0,0.2,0,0.3,0.1l2.2,4.8
		C10.3,10.3,10.2,10.4,10.1,10.5C10.1,10.5,10.1,10.5,10.1,10.5z"/>
	<path fill="#FFFFFF" d="M16.1,12.5c-0.1,0-0.2-0.1-0.3-0.2L14,8l-2.8,4.4c0,0-0.1,0.1-0.1,0.1l0,0l0,0l0,0l0,0c0,0,0,0,0,0l0,0
		c0,0,0,0,0,0c0,0-0.1,0-0.1,0H6c-0.1,0-0.2-0.1-0.3-0.2c-0.1-0.1-0.1-0.2,0-0.3l2.7-4.8c0-0.1,0.1-0.1,0.1-0.1l0,0c0,0,0,0,0,0l0,0
		c0,0,0,0,0,0l0,0l0,0c0,0,0.1,0,0.1,0h4.9l-0.4-0.8c-0.1-0.2,0-0.3,0.2-0.4c0.2-0.1,0.3,0,0.4,0.2l2.6,6c0.1,0.2,0,0.3-0.2,0.4
		C16.2,12.5,16.2,12.5,16.1,12.5z M6.5,11.7h3.9L8.7,7.9L6.5,11.7z M9.2,7.5l1.8,3.8l2.5-3.8H9.2z"/>
	<path fill="#FFFFFF" d="M16.1,15.3c-1.8,0-3.2-1.4-3.2-3.2S14.4,9,16.1,9c1.8,0,3.2,1.4,3.2,3.2S17.9,15.3,16.1,15.3z M16.1,9.8
		c-1.3,0-2.4,1.1-2.4,2.4s1.1,2.4,2.4,2.4c1.3,0,2.4-1.1,2.4-2.4S17.4,9.8,16.1,9.8z M6,15.3c-1.8,0-3.2-1.4-3.2-3.2S4.2,9,6,9
		c1.8,0,3.2,1.4,3.2,3.2S7.8,15.3,6,15.3z M6,9.8c-1.3,0-2.4,1.1-2.4,2.4s1.1,2.4,2.4,2.4c1.3,0,2.4-1.1,2.4-2.4S7.3,9.8,6,9.8z"/>
	<path fill="#FFFFFF" d="M9,6H7C6.8,6,6.6,5.9,6.5,5.7C6.4,5.5,6.5,5.3,6.6,5.2C6.7,5,6.9,4.9,7.2,5c0.5,0.1,1.9,0.4,1.9,0.4
		c0.2,0,0.3,0.2,0.2,0.3C9.3,5.9,9.2,6,9,6z M7,5.4v0.3V5.4L7,5.4z"/>
	<path fill="#FFFFFF" d="M14.9,6.2h-1.4c-0.1,0-0.2-0.1-0.2-0.2c0-0.1,0.1-0.2,0.2-0.2h1.4c0.1,0,0.2,0.1,0.2,0.2
		C15.1,6.1,15,6.2,14.9,6.2z"/>
	
		<circle fill="none" stroke="#FFFFFF" stroke-width="0.944" stroke-linecap="round" stroke-linejoin="round" stroke-miterlimit="10" cx="11" cy="12" r="0.7"/>
	<path fill="#FFFFFF" d="M11.7,12c0-0.4-0.3-0.7-0.7-0.7c-0.4,0-0.7,0.3-0.7,0.7c0,0.4,0.3,0.7,0.7,0.7C11.4,12.7,11.7,12.4,11.7,12
		"/>
</g>
</svg>
