<?xml version="1.0" encoding="utf-8"?>
<!-- Generator: Adobe Illustrator 21.0.2, SVG Export Plug-In . SVG Version: 6.00 Build 0)  -->
<svg version="1.1" id="Слой_1" xmlns="http://www.w3.org/2000/svg" xmlns:xlink="http://www.w3.org/1999/xlink" x="0px" y="0px"
	 viewBox="0 0 22.1 22.1" enable-background="new 0 0 22.1 22.1" xml:space="preserve">
<g>
	<g>
		<path fill="#FFFFFF" d="M16.3,17.3c-2.4-6.9-3.4-7.8-3.4-7.8c0.3-0.5,1.2-3.1,1.2-3.1l0.6,0.9l1.4-0.8c0,0-1.1-2.3-1.6-2.2
			c-0.5,0.1-2.1-0.7-2.3-0.8l0,0h-1.2H9.9l1.2,2.2l1.1-2.2l-1.1,1.6l0,0.6v0l0,0l0,0v0l0.1-0.3l-1.2-2c0,0-1.9,0.9-2.4,0.9
			S5.9,6.5,5.9,6.5l1.6,0.8L8,6.4c0,0,0.9,2.6,1.2,3.1c0,0-1,0.9-3.4,7.8C5.9,17.3,10.5,20.6,16.3,17.3z"/>
	</g>
</g>
</svg>
