<?xml version="1.0" encoding="utf-8"?>
<!-- Generator: Adobe Illustrator 21.0.2, SVG Export Plug-In . SVG Version: 6.00 Build 0)  -->
<svg version="1.1" id="Слой_1" xmlns="http://www.w3.org/2000/svg" xmlns:xlink="http://www.w3.org/1999/xlink" x="0px" y="0px"
	 viewBox="0 0 22.1 22.1" enable-background="new 0 0 22.1 22.1" xml:space="preserve">
<g>
	<path fill="#FFFFFF" d="M14.2,9.4c0,0.2,0.2,0.4,0.4,0.4c0.2,0,0.4-0.2,0.4-0.4C15,9.2,14.8,9,14.6,9C14.4,9,14.2,9.2,14.2,9.4
		 M11.1,8.5c-1.4,0-2.6,1.2-2.6,2.6c0,1.4,1.1,2.6,2.6,2.6c1.4,0,2.6-1.2,2.6-2.6C13.7,9.7,12.5,8.5,11.1,8.5 M11.1,14.9
		c-1.2,0-2.3,0-3.5,0c-0.6,0-1.1-0.4-1.3-1c0-0.1,0-0.2,0-0.3c0-1.4,0-2.7,0-4.1c0-0.8,0.6-1.3,1.3-1.3c0.2,0,0.4,0,0.6,0
		c0.3,0,0.6-0.2,0.7-0.5c0.1-0.2,0.1-0.3,0.2-0.5C9,6.8,9.3,6.6,9.7,6.6c0.9,0,1.9,0,2.8,0c0.3,0,0.6,0.2,0.7,0.5
		c0.1,0.2,0.1,0.3,0.2,0.5c0.1,0.3,0.3,0.5,0.6,0.5c0.2,0,0.5,0,0.7,0c0.7,0,1.2,0.6,1.2,1.3c0,1.4,0,2.8,0,4.2
		c0,0.7-0.5,1.2-1.2,1.3c0,0-0.1,0-0.1,0C13.4,14.9,12.2,14.9,11.1,14.9"/>
</g>
</svg>
