<?xml version="1.0" encoding="utf-8"?>
<!-- Generator: Adobe Illustrator 21.0.0, SVG Export Plug-In . SVG Version: 6.00 Build 0)  -->
<svg version="1.1" id="Слой_1" xmlns="http://www.w3.org/2000/svg" xmlns:xlink="http://www.w3.org/1999/xlink" x="0px" y="0px"
	 viewBox="0 0 22.1 22.1" style="enable-background:new 0 0 22.1 22.1;" xml:space="preserve">
<style type="text/css">
	.st1{fill:#FFFFFF;}
</style>
<g>
	<path class="st1" d="M17.5,4.9c0,0-0.5-0.2-0.7,0.5c0,0-2.8-0.7-3.9,2.3c0,0-2.5,0.6-4.8-0.1c0,0-1-1.3-2.1-0.4c0,0-0.8,1-1.8,0.7
		c0,0,1,1.7,3.3,0.3c0,0-0.4,1.2,0,1.8l-2,3.4L6.2,14l2.3-2.9c0,0,2.1,0.7,4.5,0l2.4,2.9l0.8-0.5l-2-3.2c0,0,1.2-1.6,1.2-2.6
		c0,0,0,0.4,0.2,0.7S15.8,9,15.8,9s0.5,0.3,0.8-0.1C16.9,8.7,17.3,5.9,17.5,4.9z"/>
	<path class="st1" d="M10.9,16.6c-3.2,0-6.2-1.5-7.8-3.9L4.2,12c1.3,2,3.9,3.3,6.6,3.3s5.3-1.3,6.6-3.3l1.1,0.7
		C17.1,15.1,14.1,16.6,10.9,16.6z"/>
</g>
</svg>
