<?xml version="1.0" encoding="utf-8"?>
<!-- Generator: Adobe Illustrator 21.0.2, SVG Export Plug-In . SVG Version: 6.00 Build 0)  -->
<svg version="1.1" id="Слой_1" xmlns="http://www.w3.org/2000/svg" xmlns:xlink="http://www.w3.org/1999/xlink" x="0px" y="0px"
	 viewBox="0 0 22.1 22.1" enable-background="new 0 0 22.1 22.1" xml:space="preserve">
<path fill="#FFFFFF" d="M15.4,7.8H5.8v5.4h9.6V7.8z M16.8,14.5H4.5v-0.2c0-2.3,0-4.6,0-6.9c0-0.5,0.3-0.8,0.9-0.8c2,0,4.1,0,6.1,0
	c1.5,0,3,0,4.5,0c0.6,0,0.9,0.3,0.9,0.9c0,2.3,0,4.6,0,6.9V14.5z"/>
<path fill="#FFFFFF" d="M3.1,15.1h5.6c0.1,0.3,0.2,0.4,0.3,0.4c0.1,0.1,0.2,0.1,0.3,0.1c1,0,2,0,3,0c0.3,0,0.4-0.2,0.5-0.5h5.7
	c0,0.3-0.1,0.6-0.3,0.8c-0.3,0.3-0.6,0.4-0.9,0.4c0,0-0.1,0-0.1,0c-4.2,0-8.4,0-12.6,0c-0.4,0-0.8-0.1-1-0.4
	C3.2,15.7,3.1,15.4,3.1,15.1"/>
</svg>
