<?xml version="1.0" encoding="utf-8"?>
<!-- Generator: Adobe Illustrator 21.0.2, SVG Export Plug-In . SVG Version: 6.00 Build 0)  -->
<svg version="1.1" id="Слой_1" xmlns="http://www.w3.org/2000/svg" xmlns:xlink="http://www.w3.org/1999/xlink" x="0px" y="0px"
	 viewBox="0 0 22.1 22.1" enable-background="new 0 0 22.1 22.1" xml:space="preserve">
<g>
	<path fill="#FFFFFF" d="M14.9,15.3c-0.6,0.2-0.8,0-0.9-0.4c-0.2-0.6-0.3-1.1-0.5-1.7c-0.1,0-0.2,0-0.3,0.1c0.1,0.6,0.2,1.2,0.3,1.9
		c-0.4,0.2-0.7,0.1-0.8-0.4c-0.1-0.6-0.2-1.2-0.2-1.8c-0.1-1-0.4-1.2-1.4-1.1c-0.8,0.1-1.7,0.1-2.3,0.9c-0.1,0.1-0.5,0-0.8,0
		c-0.1,0-0.3-0.1-0.3-0.1c-0.1,0.1-0.2,0.3-0.1,0.4c0.2,0.7,0.2,1.5,1,2c-0.6,0.3-0.9,0.2-1.2-0.4c-0.2-0.5-0.4-1-0.6-1.6
		c-0.1-0.2-0.2-0.4-0.3-0.6c-0.6,1-0.6,1.9,0.1,2.8c-0.8,0.3-1.2,0.2-1.2-0.6c0-1.2,0-2.4,0-3.6c0-0.5-0.1-1-0.3-1.5
		c0,0.5-0.1,1-0.1,1.5c-0.1,0-0.1,0-0.2,0c0-0.2-0.1-0.4-0.1-0.6C4.8,9.6,4.9,8.8,5,8c0.1-0.8,0.5-1.2,1.4-1.2
		c1.3,0,2.6,0.1,3.8,0.1c1.6-0.1,3.1-0.3,4.7-0.5c0.4,0,0.6-0.2,0.3-0.6c-0.1-0.1-0.1-0.2-0.1-0.3c0.5,0.1,0.9,0.3,1.3,0.3
		c0.4,0,0.8-0.3,1.2-0.6c0,0.1,0,0.2,0,0.2c-0.6,0.4-0.4,0.8,0,1.2c0.2,0.2,0.5,0.5,0.7,0.8c0.4,0.5,0.2,0.9-0.4,1
		c-0.2,0-0.5,0.1-0.7,0.1C16.6,8.9,16,9.2,15.7,10c-0.3,0.7-0.7,1.4-1.2,2c-0.5,0.5-0.4,1.3-0.1,2C14.5,14.4,14.7,14.8,14.9,15.3"/>
</g>
</svg>
