<?xml version="1.0" encoding="utf-8"?>
<!-- Generator: Adobe Illustrator 22.0.0, SVG Export Plug-In . SVG Version: 6.00 Build 0)  -->
<svg version="1.1" id="Слой_1" xmlns="http://www.w3.org/2000/svg" xmlns:xlink="http://www.w3.org/1999/xlink" x="0px" y="0px"
	 viewBox="0 0 22.1 22.1" style="enable-background:new 0 0 22.1 22.1;" xml:space="preserve">
<style type="text/css">
	.st1{fill:#FFFFFF;}
</style>
<g>
	<path class="st1" d="M14.5,14.1L14.5,14.1l0.2,0v-1.5h-0.2h-0.1c0.1-1.5-2.6-1.6-3.4-1.6H11c-0.4,0-3.2,0-3.5,1.3c0,0,0,0,0,0
		c0,0.1,0,0.2,0,0.3H7.1v1.5h0.3l-0.3,5.1h0.7L8.5,15l0.8-0.8h1.6H11h1.6h0.1l0.8,0.8l0.7,4.2h0.6L14.5,14.1L14.5,14.1z"/>
	<path class="st1" d="M7.2,7.1c0.6,1.4,0.6,3.2,0.6,3.9c0.2-0.1,0.3-0.1,0.5-0.2c0-0.4,0-1.1-0.1-1.8H11h2.6
		c-0.1,0.8-0.1,1.5-0.1,1.9c0.2,0.1,0.4,0.2,0.5,0.3c0-0.4-0.1-2.5,0.6-4.1c0-0.1,0.1-0.2,0.1-0.3c0.5-0.7,0.6-1.3,0.4-1.8
		c-0.3-0.7-1.1-1-1.2-1C13.8,4,12,3.5,11,3.5S8.2,4,8.1,4c0,0-0.8,0.2-1.1,1C6.8,5.5,6.9,6.1,7.2,6.8C7.2,6.9,7.2,7,7.2,7.1z
		 M13.8,8.5H11H8.3C8.2,8,8.1,7.6,7.9,7.1c1.4-0.6,3-0.6,3.1-0.6c0.1,0,1.7,0,3.1,0.6C14,7.6,13.8,8,13.8,8.5z M7.4,5.2
		c0.2-0.5,0.8-0.7,0.8-0.7S10,4,11,4c0.9,0,2.8,0.5,2.8,0.5s0.6,0.2,0.8,0.7c0.1,0.3,0.1,0.8-0.2,1.3C12.8,5.9,11.2,5.9,11,6
		c-0.2,0-1.8,0-3.4,0.6c0,0,0,0,0-0.1C7.4,6,7.3,5.5,7.4,5.2z"/>
</g>
</svg>
