<?xml version="1.0" encoding="utf-8"?>
<!-- Generator: Adobe Illustrator 21.0.2, SVG Export Plug-In . SVG Version: 6.00 Build 0)  -->
<svg version="1.1" id="Слой_1" xmlns="http://www.w3.org/2000/svg" xmlns:xlink="http://www.w3.org/1999/xlink" x="0px" y="0px"
	 viewBox="0 0 22.1 22.1" enable-background="new 0 0 22.1 22.1" xml:space="preserve">
<g>
	<path fill="#FFFFFF" d="M7.6,4.1c0.2,0.2,0.3,0.5,0.5,0.7c1.2,1.8,2.3,3.7,3.3,5.6c0.2,0.4,0.5,0.9,0.7,1.3
		c0.1,0.2,0.3,0.4,0.5,0.5c0.7,0.6,1.4,0.7,2.2,0.4c0.1,0,0.2-0.1,0.3,0c0.6,0.1,1.3,0.3,1.9,0.4c0.3,0.1,0.5,0.2,0.8,0.4
		c0.3,0.2,0.4,0.5,0.3,0.9c-0.1,0.5-0.2,0.9-0.3,1.4c0,0.1-0.1,0.1-0.1,0.1c-0.9,0.2-1.9,0.3-2.8,0.5c-0.6,0.1-1.3,0.2-1.9,0.3
		c-0.2,0-0.5,0-0.7,0c-0.6-0.1-1-0.5-1.1-1c-0.4-1.1-0.8-2.2-1.3-3.2c-0.9-2-2.3-3.6-4.1-4.8C5.6,7.4,5.5,7.3,5.5,7.1
		c0-0.1,0-0.2,0-0.3c0.3-1.1,0.9-2,1.9-2.6C7.5,4.2,7.5,4.1,7.6,4.1C7.6,4.1,7.6,4.1,7.6,4.1z"/>
	<path fill="#FFFFFF" d="M8.2,10.2C8.1,10,7.9,9.9,7.7,9.8c0,0-0.1,0-0.1,0c-0.5-0.2-0.8-0.1-0.8,0.4c-0.1,0.9-0.2,1.8-0.3,2.7
		c-0.1,1.2-0.1,2.4-0.2,3.7c0,0,0,0.1,0,0.2c-0.1,0-0.2,0-0.4,0c0-2.9-0.1-5.8-0.4-8.8C6.6,8.5,7.5,9.3,8.2,10.2z"/>
</g>
</svg>
