<?xml version="1.0" encoding="utf-8"?>
<!-- Generator: Adobe Illustrator 21.0.2, SVG Export Plug-In . SVG Version: 6.00 Build 0)  -->
<svg version="1.1" id="Слой_1" xmlns="http://www.w3.org/2000/svg" xmlns:xlink="http://www.w3.org/1999/xlink" x="0px" y="0px"
	 viewBox="0 0 22.1 22.1" enable-background="new 0 0 22.1 22.1" xml:space="preserve">
<path fill="#FFFFFF" d="M9.5,9.3l0.8-0.3l1.4,1.4l-1.1-3.6C10.7,6.7,9.9,8.2,9.5,9.3 M4.6,14.4l0.7-2.7l1.2-2.1L7,9.9l0,0
	c0.4-1.1,1-2,1.8-2.8l0.4,0.8l0.7-1.4l1-1.6l0.8,0.6l1.1,2.5l0.9,0.3c0,0,1.2,2.8,1.2,2.4s-0.2-1.2-0.2-1.2s0.6-0.1,0.7-0.6
	C15.8,8.4,16.2,8,16.2,8l1,2.3l1,4.1H7.5H4.6z"/>
</svg>
