<?xml version="1.0" encoding="utf-8"?>
<!-- Generator: Adobe Illustrator 21.0.2, SVG Export Plug-In . SVG Version: 6.00 Build 0)  -->
<svg version="1.1" id="Слой_1" xmlns="http://www.w3.org/2000/svg" xmlns:xlink="http://www.w3.org/1999/xlink" x="0px" y="0px"
	 viewBox="0 0 22.1 22.1" enable-background="new 0 0 22.1 22.1" xml:space="preserve">
<g>
	<polygon fill="#FFFFFF" points="15.9,4.8 15.9,4.2 15.1,4.2 15.1,3.5 13,3.5 13,6 12.4,6 12.4,7.6 15.7,7.6 15.7,6 15.1,6 
		15.1,4.8 	"/>
	<path fill="#FFFFFF" d="M18.6,9.4l-1-0.9C17.1,7.9,16.3,8,16.3,8h-2.1H14h-2.1c0,0-0.8,0-1.4,0.5l-1,0.9c0,0-0.6,0.5-0.4,1.6l1,4.9
		c0,0,0.2,1.2,1.3,1.3H14h0.2h2.6c1.1-0.2,1.3-1.3,1.3-1.3l1-4.9C19.2,9.9,18.6,9.4,18.6,9.4z"/>
	<path fill="#FFFFFF" d="M5.4,11.5l-0.5-0.1c0-0.1,0.4-1.9,1.6-3.6c1.1-1.6,3.3-3.6,7.1-3.4l0,0.5c-2.8-0.1-5,1-6.6,3.2
		C5.7,9.8,5.4,11.5,5.4,11.5z"/>
	<ellipse fill="#FFFFFF" cx="5.1" cy="13.6" rx="2" ry="2.9"/>
</g>
</svg>
