<svg width="219" height="247" viewBox="0 0 219 247" fill="none" xmlns="http://www.w3.org/2000/svg">
<path d="M218.874 35.6506C218.909 26.2341 215.191 17.1892 208.539 10.5042C201.887 3.81912 192.845 0.0409683 183.4 0C173.955 0.0409683 164.913 3.81912 158.261 10.5042C151.609 17.1892 147.892 26.2341 147.926 35.6506C147.899 45.0626 151.619 54.1007 158.27 60.7801C164.921 67.4596 173.96 71.2344 183.4 71.2753C192.841 71.2344 201.879 67.4596 208.53 60.7801C215.181 54.1007 218.902 45.0626 218.874 35.6506Z" fill="#0070CE"/>
<path d="M183.4 81.2585C176.463 81.252 169.621 79.655 163.402 76.5909C157.184 73.5269 151.756 69.0779 147.537 63.5881V135.431C147.558 140.355 146.605 145.235 144.733 149.792C142.86 154.349 140.106 158.494 136.627 161.989C133.147 165.484 129.011 168.262 124.454 170.163C119.898 172.064 115.01 173.051 110.071 173.068H108.182C103.243 173.051 98.3552 172.064 93.7986 170.163C89.2421 168.262 85.1059 165.484 81.6265 161.989C78.1471 158.494 75.3926 154.349 73.5204 149.792C71.6483 145.235 70.6952 140.355 70.7157 135.431V39.6748C70.7157 38.3592 70.9485 37.0952 70.9485 35.6506C70.983 26.2563 67.2835 17.2309 60.6594 10.5495C54.0354 3.86817 45.0263 0.0749901 35.6038 7.62939e-06H34.2842C25.2771 0.335441 16.7335 4.0667 10.3794 10.4399C4.0252 16.8132 0.334217 25.3533 0.0520716 34.3349V138.268C-0.0194576 152.478 2.71753 166.563 8.1067 179.718C13.4959 192.873 21.4317 204.841 31.4608 214.938C41.49 225.035 53.416 233.064 66.5578 238.565C79.6996 244.066 93.7997 246.932 108.053 247H110.097C138.873 246.891 166.428 235.391 186.701 215.029C206.973 194.668 218.304 167.112 218.201 138.423V64.8779C213.961 69.9998 208.638 74.1243 202.613 76.9561C196.588 79.7879 190.009 81.257 183.348 81.2585" fill="#0070CE"/>
</svg>
