<?xml version="1.0" encoding="utf-8"?>
<!-- Generator: Adobe Illustrator 21.0.2, SVG Export Plug-In . SVG Version: 6.00 Build 0)  -->
<svg version="1.1" id="Слой_1" xmlns="http://www.w3.org/2000/svg" xmlns:xlink="http://www.w3.org/1999/xlink" x="0px" y="0px"
	 viewBox="0 0 22.1 22.1" enable-background="new 0 0 22.1 22.1" xml:space="preserve">
<g>
	<g>
		<path fill="#FFFFFF" d="M5.6,10.6C5.6,10,5.6,9.5,5.8,9c0.3-0.7,0.8-1.2,1.6-1.5C8.2,7.2,9,7.2,9.8,7.4c0.3,0.1,0.5,0.2,0.8,0.3
			c0.1,0.1,0.2,0.1,0.3,0.2c0.3,0.2,0.7,0.1,1-0.1c0.3-0.2,0.5-0.3,0.8-0.4c0.3-0.1,0.6-0.1,0.9-0.1c0.3,0,0.7,0,1,0.1
			c0.8,0.2,1.4,0.6,1.9,1.2C16.8,9,16.9,9.5,17,10c0.1,0.7,0,1.4-0.2,2.1c-0.2,0.9-0.5,1.7-0.9,2.6c-0.2,0.5-0.5,1-0.9,1.4
			c-0.3,0.3-0.6,0.7-1,0.9c-0.7,0.4-1.4,0.5-2.2,0.2c-0.1-0.1-0.3-0.1-0.4-0.2c-0.1,0-0.1,0-0.2,0c-0.2,0.1-0.4,0.2-0.6,0.3
			c-0.7,0.2-1.4,0.1-2.1-0.4c-0.4-0.3-0.7-0.6-1-1c-0.3-0.4-0.5-0.8-0.7-1.2c-0.3-0.5-0.5-1.1-0.7-1.6c-0.2-0.5-0.3-0.9-0.4-1.4
			C5.6,11.3,5.6,10.9,5.6,10.6z"/>
		<path fill="#FFFFFF" d="M15.5,3.2c-0.1,0.3-0.1,0.5-0.2,0.8c-0.1,0.4-0.3,0.8-0.6,1.2c-0.2,0.4-0.5,0.7-0.9,1
			c-0.4,0.3-0.9,0.4-1.4,0.3c-0.3,0-0.7-0.2-1-0.3c0,0-0.1-0.1-0.1-0.1c-0.1-0.4-0.1-0.8,0-1.1c0.1-0.4,0.4-0.8,0.8-1
			c0.4-0.3,0.9-0.4,1.4-0.4c0.3,0,0.7,0,1-0.1C14.9,3.3,15.2,3.3,15.5,3.2C15.5,3.1,15.5,3.1,15.5,3.2z"/>
		<path fill="#FFFFFF" d="M9.2,5.4C9.4,5.2,9.6,5,9.8,4.9c0.1,0,0.1-0.1,0.2-0.1c0.3,0,0.5,0.1,0.7,0.3C10.9,5.3,11,5.6,11.2,6
			c0.1,0.4,0.2,0.7,0.2,1.1c0,0.2,0,0.4,0.1,0.6c-0.1,0-0.2,0-0.3,0c0-0.1,0-0.2,0-0.3C11,7,10.9,6.6,10.6,6.2
			c-0.2-0.4-0.5-0.7-0.9-0.8c-0.1,0-0.2,0-0.3,0C9.4,5.4,9.3,5.4,9.2,5.4z"/>
	</g>
</g>
</svg>
