<?xml version="1.0" encoding="utf-8"?>
<!-- Generator: Adobe Illustrator 21.0.2, SVG Export Plug-In . SVG Version: 6.00 Build 0)  -->
<svg version="1.1" id="Слой_1" xmlns="http://www.w3.org/2000/svg" xmlns:xlink="http://www.w3.org/1999/xlink" x="0px" y="0px"
	 viewBox="0 0 22.1 22.1" enable-background="new 0 0 22.1 22.1" xml:space="preserve">
<g>
	<path fill="#FFFFFF" d="M16.3,11.6c0.9-0.3,1.5-0.5,1.5-0.5s-0.6-0.3-1.5-0.5c-0.4-0.1-0.5-0.7-0.2-1c0.8-0.6,1.2-1.1,1.2-1.1
		s-0.6,0-1.5,0.1c-0.4,0-0.7-0.4-0.5-0.8c0.4-0.8,0.7-1.4,0.7-1.4s-0.6,0.2-1.5,0.7C14,7.3,13.5,7,13.6,6.6c0.1-1,0.1-1.6,0.1-1.6
		s-0.4,0.4-1,1.2c-0.3,0.3-0.8,0.2-0.9-0.2c-0.3-0.9-0.5-1.5-0.5-1.5S10.9,5,10.6,6c-0.1,0.4-0.7,0.5-1,0.2C9,5.4,8.6,5,8.6,5
		s0,0.6,0.1,1.5c0,0.4-0.4,0.7-0.8,0.5C7,6.6,6.5,6.4,6.5,6.4S6.7,7,7.2,7.9c0.2,0.4-0.1,0.9-0.5,0.8C5.6,8.6,5,8.6,5,8.6
		s0.4,0.4,1.2,1c0.3,0.3,0.2,0.8-0.2,0.9c-0.9,0.3-1.5,0.5-1.5,0.5s0.6,0.3,1.5,0.5c0.4,0.1,0.5,0.7,0.2,1C5.5,13.2,5,13.7,5,13.7
		s0.6,0,1.5-0.1c0.4,0,0.7,0.4,0.5,0.8c-0.4,0.8-0.7,1.4-0.7,1.4s0.6-0.2,1.5-0.7c0.4-0.2,0.9,0.1,0.8,0.5c-0.1,1-0.1,1.6-0.1,1.6
		s0.4-0.4,1-1.2c0.3-0.3,0.8-0.2,0.9,0.2c0.3,0.9,0.5,1.5,0.5,1.5s0.3-0.6,0.5-1.5c0.1-0.4,0.7-0.5,1-0.2c0.6,0.8,1.1,1.2,1.1,1.2
		s0-0.6-0.1-1.5c0-0.4,0.4-0.7,0.8-0.5c0.8,0.4,1.4,0.7,1.4,0.7s-0.2-0.6-0.7-1.5c-0.2-0.4,0.1-0.9,0.5-0.8c1,0.1,1.6,0.1,1.6,0.1
		s-0.4-0.4-1.2-1C15.8,12.3,15.9,11.8,16.3,11.6"/>
</g>
</svg>
