<?xml version="1.0" encoding="utf-8"?>
<!-- Generator: Adobe Illustrator 21.0.2, SVG Export Plug-In . SVG Version: 6.00 Build 0)  -->
<svg version="1.1" id="Слой_1" xmlns="http://www.w3.org/2000/svg" xmlns:xlink="http://www.w3.org/1999/xlink" x="0px" y="0px"
	 viewBox="0 0 22.1 22.1" enable-background="new 0 0 22.1 22.1" xml:space="preserve">
<path fill="#FFFFFF" d="M6.3,17.4h4.6h1.2c0.2,0,0.9,0.1,1,0c0.1-0.1,0.1-0.8,0.2-1c0.1-0.2,0.1-0.5,0.3-0.6
	c0.3-0.3,0.3-0.2,0.7-0.2c0.5,0,1.3,0.1,1.7-0.2c0.5-0.4,0.3-0.9,0.2-1.4c-0.1-0.5,0.8-0.6-0.3-1.3c0-0.2,0.7-0.2,0.7-0.4
	c0-0.2-0.2-0.4-0.3-0.6c-0.2-0.6,0.9-0.5,1.3-0.8c0.3-0.4-0.4-1-0.6-1.4c-0.3-0.4-0.8-1-1-1.5c-0.2-0.4,0.1-0.4,0-1
	c-0.1-0.5-0.3-0.9-0.6-1.3c-0.5-0.7-1.2-1.3-2-1.6c-2-0.8-4.5-0.6-6.3,0.6C5.2,6,4.7,8.1,5.2,10c0.1,0.6,0.4,1.2,0.7,1.7
	c0.3,0.5,0.7,0.9,0.9,1.5c0.2,0.6,0,1.3-0.1,2C6.6,16,6.5,16.7,6.3,17.4"/>
</svg>
