<?xml version="1.0" encoding="utf-8"?>
<!-- Generator: Adobe Illustrator 21.0.2, SVG Export Plug-In . SVG Version: 6.00 Build 0)  -->
<svg version="1.1" id="Слой_1" xmlns="http://www.w3.org/2000/svg" xmlns:xlink="http://www.w3.org/1999/xlink" x="0px" y="0px"
	 viewBox="0 0 22.1 22.1" enable-background="new 0 0 22.1 22.1" xml:space="preserve">
<g>
	<g>
		<path fill="#FFFFFF" d="M20,9.1c0,0-3-1.8-5-1.5s-3.4,2.2-3.8,3c0,0,2.8-1.8,4.8-1.3c0,0-2.6,0.1-5.1,2.3s-4.1,4.4-4.6,5.1
			l0.6,0.6c0,0,2.4-3.5,3-4c0.6-0.5,0.9-0.7,1.4-0.4c0.5,0.3,3.7,2.1,6.2-0.4S19.3,9.7,20,9.1z"/>
		<path fill="#FFFFFF" d="M9.3,8.2c0,0,1,1.2,0.9,3.1c0,0,3-3.5-2.2-6.2c0,0-3.9,4.8,1.2,7.3C9.2,12.4,10.1,10.9,9.3,8.2z"/>
	</g>
</g>
</svg>
