<?xml version="1.0" encoding="utf-8"?>
<!-- Generator: Adobe Illustrator 21.0.2, SVG Export Plug-In . SVG Version: 6.00 Build 0)  -->
<svg version="1.1" id="Слой_1" xmlns="http://www.w3.org/2000/svg" xmlns:xlink="http://www.w3.org/1999/xlink" x="0px" y="0px"
	 viewBox="0 0 22.1 22.1" enable-background="new 0 0 22.1 22.1" xml:space="preserve">
<g>
	<g>
		
			<rect x="11.5" y="5.1" transform="matrix(0.7071 -0.7071 0.7071 0.7071 -2.9862 11.7273)" fill="#FFFFFF" width="2.3" height="8.7"/>
		<path fill="#FFFFFF" d="M15,12.5L13,14.6c-1.4,1.4-3.8,1.4-5.2,0l-0.1-0.1c-1.4-1.4-1.4-3.8,0-5.2l2.1-2.1L15,12.5z"/>
		<path fill="#FFFFFF" d="M14.4,5l-1.7,1.7l-0.8-0.8l1.7-1.7c0.2-0.2,0.6-0.2,0.8,0l0,0C14.6,4.4,14.6,4.7,14.4,5z"/>
		<path fill="#FFFFFF" d="M18.1,8.6l-1.7,1.7l-0.8-0.8l1.7-1.7c0.2-0.2,0.6-0.2,0.8,0l0,0C18.3,8,18.3,8.4,18.1,8.6z"/>
		
			<rect x="4.4" y="13.9" transform="matrix(0.7071 -0.7071 0.7071 0.7071 -8.3212 9.5657)" fill="#FFFFFF" width="6.1" height="1.9"/>
	</g>
</g>
</svg>
