<?xml version="1.0" encoding="utf-8"?>
<!-- Generator: Adobe Illustrator 21.0.2, SVG Export Plug-In . SVG Version: 6.00 Build 0)  -->
<svg version="1.1" id="Слой_1" xmlns="http://www.w3.org/2000/svg" xmlns:xlink="http://www.w3.org/1999/xlink" x="0px" y="0px"
	 viewBox="0 0 22.1 22.1" enable-background="new 0 0 22.1 22.1" xml:space="preserve">
<g>
	<path fill="#FFFFFF" d="M11,16.2c-0.5-0.4-1-0.8-1.5-1.2c-0.9-0.7-1.7-1.5-2.4-2.4c-0.5-0.7-1-1.4-1.3-2.2C5.7,9.9,5.6,9.4,5.6,9
		c0-0.8,0.2-1.5,0.8-2c0.6-0.7,1.4-1,2.4-1C9.2,6,9.6,6.2,10,6.5c0.4,0.3,0.7,0.6,1,0.9c0,0,0.1,0.1,0.1,0.1c0,0,0.1-0.1,0.1-0.1
		c0.3-0.3,0.6-0.6,0.9-0.9c0.8-0.6,1.7-0.7,2.6-0.3c1,0.4,1.6,1.1,1.8,2.2c0.1,0.5,0,0.9-0.1,1.4c-0.2,0.8-0.6,1.5-1,2.2
		c-0.6,0.8-1.3,1.6-2,2.3C12.7,14.9,11.9,15.5,11,16.2C11.1,16.1,11.1,16.1,11,16.2"/>
</g>
</svg>
