<?xml version="1.0" encoding="utf-8"?>
<!-- Generator: Adobe Illustrator 22.0.0, SVG Export Plug-In . SVG Version: 6.00 Build 0)  -->
<svg version="1.1" id="Слой_1" xmlns="http://www.w3.org/2000/svg" xmlns:xlink="http://www.w3.org/1999/xlink" x="0px" y="0px"
	 viewBox="0 0 22.1 22.1" style="enable-background:new 0 0 22.1 22.1;" xml:space="preserve">
<style type="text/css">
	.st1{fill:#FFFFFF;}
</style>
<g>
	<g>
		<g>
			<path class="st1" d="M6.6,11.2c0.1-0.4-0.1-0.7-0.5-0.8c-0.4-0.1-0.7,0.1-0.8,0.5c-0.1,0.4,0.1,0.7,0.5,0.8
				C6.2,11.7,6.6,11.5,6.6,11.2z"/>
			<path class="st1" d="M6.3,16.3c0.1-0.1,0.2-0.1,0.3-0.2c0.2,0,0.3,0,0.4,0.1c0,0,0.1,0,0.1,0c0-0.6-0.2-3.2-0.2-3.6
				c0-0.3-0.1-0.7-0.2-0.9C6.5,11.9,6.3,12,6,12c-0.1,0-0.1,0-0.2,0c-0.1,0-0.1,0-0.2-0.1c0,0.3,0,0.8,0,1
				C5.6,13.2,6.1,15.8,6.3,16.3C6.3,16.3,6.3,16.3,6.3,16.3z"/>
			<path class="st1" d="M6.9,6.7c-0.3,0-0.5-0.1-0.7-0.3C6.1,6.9,5.9,8,5.8,8.4c-0.1,0.4-0.2,1.2-0.3,1.7C5.6,10.1,5.8,10,6,10h0
				c0.1,0,0.1,0,0.2,0c0.2,0,0.4,0.2,0.5,0.3C6.8,10,7,9.4,7.1,9c0.1-0.5,0.2-1.2,0.3-1.4L7.1,6.7C7.1,6.7,7,6.7,6.9,6.7z"/>
			<path class="st1" d="M7.1,16.4c-0.2,0-0.7,0.2-0.7,0.2s-0.2,0.4-0.1,1c0.1,0.5,0.5,1.3,0.8,1.2c0.3-0.1-0.2-0.3-0.3-1
				c0-0.1,0.1-0.2,0.2-0.3c0,0.1,0,0.1,0,0.1c0,0.2,0,0.4,0.1,0.4s0.2-0.2,0.2-0.4c0-0.1,0-0.3,0-0.5C7.3,16.9,7.2,16.4,7.1,16.4z"
				/>
			<path class="st1" d="M14.7,6.5l0.1-0.3c0.1,0.1,0.3,0.2,0.4,0.2c0.3,0,0.6-0.3,0.6-0.7c0-0.2-0.1-0.4-0.3-0.6
				c-0.1-0.1-2.9-1.3-3.2-1.6c-0.2-0.2-0.1-0.8-0.1-0.8c0,0,0,0,0,0c0-0.2-0.5-0.4-1.2-0.4S9.9,2.6,9.9,2.8c0,0,0,0,0,0
				c0,0,0.1,0.5-0.1,0.8C9.5,3.8,6.7,5.1,6.6,5.2C6.4,5.3,6.3,5.5,6.3,5.7c0,0.4,0.3,0.7,0.6,0.7c0.2,0,0.3-0.1,0.4-0.2l0.1,0.3
				L8.7,11c0,0,0.2,0.3-0.1,0.6c-0.3,0.3-0.5,0.8-0.7,1.7c-0.2,0.8-0.2,3.7-0.2,3.7l0.1,1.9c0,0,0.4,0.2,1,0.2c0.5,0,1.8,0,2.3,0
				c0,0,0.1,0,0.1,0s0,0,0.1,0c0.4,0,1.7,0,2.3,0c0.7,0,1-0.2,1-0.2l0.1-1.9c0,0,0-2.8-0.2-3.7c-0.2-0.8-0.5-1.4-0.7-1.7
				c-0.3-0.3-0.1-0.6-0.1-0.6L14.7,6.5z"/>
			<g>
				<path class="st1" d="M15.5,11.2c-0.1-0.4,0.1-0.7,0.5-0.8c0.4-0.1,0.7,0.1,0.8,0.5c0.1,0.4-0.1,0.7-0.5,0.8
					C15.9,11.7,15.5,11.5,15.5,11.2z"/>
				<path class="st1" d="M15.8,16.3c-0.1-0.1-0.2-0.1-0.3-0.2c-0.2,0-0.3,0-0.4,0.1c0,0-0.1,0-0.1,0c0-0.6,0.2-3.2,0.2-3.6
					c0-0.3,0.1-0.7,0.2-0.9c0.2,0.2,0.4,0.3,0.7,0.3c0.1,0,0.1,0,0.2,0c0.1,0,0.1,0,0.2-0.1c0,0.3,0,0.8,0,1
					C16.5,13.2,16,15.8,15.8,16.3C15.8,16.3,15.8,16.3,15.8,16.3z"/>
				<path class="st1" d="M15.2,6.7c0.3,0,0.5-0.1,0.7-0.3c0.1,0.5,0.3,1.6,0.4,2c0.1,0.4,0.2,1.2,0.3,1.7c-0.2-0.1-0.3-0.2-0.5-0.2
					h0c-0.1,0-0.1,0-0.2,0c-0.2,0-0.4,0.2-0.5,0.3C15.3,10,15.1,9.4,15,9c-0.1-0.5-0.2-1.2-0.3-1.4L15,6.7C15,6.7,15.1,6.7,15.2,6.7
					z"/>
				<path class="st1" d="M15,16.4c0.2,0,0.7,0.2,0.7,0.2s0.2,0.4,0.1,1c-0.1,0.5-0.5,1.3-0.8,1.2c-0.3-0.1,0.2-0.3,0.3-1
					c0-0.1-0.1-0.2-0.2-0.3c0,0.1,0,0.1,0,0.1c0,0.2,0,0.4-0.1,0.4s-0.2-0.2-0.2-0.4c0-0.1,0-0.3,0-0.5C14.8,16.9,14.9,16.4,15,16.4
					z"/>
			</g>
		</g>
	</g>
</g>
</svg>
